<svg width="16" height="16" viewBox="0 0 16 16" fill="none" xmlns="http://www.w3.org/2000/svg">
<path d="M14.7073 5.20731L14.7074 5.20727C14.8948 5.01977 15.0003 4.76539 15.0003 4.50001C15.0003 4.23461 14.8948 3.98024 14.7074 3.79274C14.5198 3.6051 14.2653 3.49973 14 3.49973C13.7347 3.49973 13.4803 3.6051 13.2927 3.79272C13.2927 3.79272 13.2927 3.79273 13.2927 3.79274L6.00005 11.086L3.20738 8.29273L3.2073 8.29266C3.0198 8.1052 2.76543 7.9997 2.50004 7.9997C2.23464 7.9997 1.98027 8.1052 1.79277 8.29266C1.60513 8.48025 1.49976 8.73471 1.49976 9C1.49976 9.26527 1.60512 9.51971 1.79273 9.7073C1.79274 9.70732 1.79276 9.70733 1.79277 9.70734L5.29254 13.2071C5.38552 13.3002 5.49578 13.3738 5.61687 13.4241L5.61719 13.4242C5.73854 13.4745 5.86862 13.5004 6.00003 13.5004C6.13144 13.5004 6.26153 13.4745 6.38287 13.4242L6.38319 13.4241C6.5042 13.3738 6.61439 13.3003 6.70733 13.2073C6.7074 13.2072 6.70746 13.2072 6.70752 13.2071L14.7073 5.20731Z" fill="#F2F2F2" stroke="#181818"/>
</svg>
